<svg xmlns="http://www.w3.org/2000/svg" xmlns:xlink="http://www.w3.org/1999/xlink" aria-hidden="true" role="img" class="iconify iconify--logos" width="35.93" height="32" preserveAspectRatio="xMidYMid meet" viewBox="0 0 256 228"><path fill="#00D8FF" d="M210.483 73.824a171.49 171.49 0 0 0-8.24-2.597c.465-1.9.893-3.777 1.273-5.621c6.238-30.281 2.16-54.676-11.769-62.708c-13.355-7.7-35.196.329-57.254 19.526a171.23 171.23 0 0 0-6.375 5.848a155.866 155.866 0 0 0-4.241-3.917C100.759 3.829 77.587-4.822 63.673 3.233C50.33 10.957 46.379 33.89 51.986 62.588a170.974 170.974 0 0 0 1.892 8.48c-3.28.932-6.445 1.924-9.474 2.98C17.309 83.498 0 98.307 0 113.668c0 15.865 18.582 31.778 46.812 41.427a145.52 145.52 0 0 0 6.921 2.165a167.467 167.467 0 0 0-2.01 9.138c-5.354 28.2-1.173 50.591 12.134 58.266c13.744 7.926 36.812-.22 59.273-19.855a145.567 145.567 0 0 0 5.342-4.923a168.064 168.064 0 0 0 6.92 6.314c21.758 18.722 43.246 26.282 56.54 18.586c13.731-7.949 18.194-32.003 12.4-61.268a145.016 145.016 0 0 0-1.535-6.842c1.62-.48 3.21-.974 4.76-1.488c29.348-9.723 48.443-25.443 48.443-41.52c0-15.417-17.868-30.326-45.517-39.844Zm-6.365 70.984c-1.4.463-2.836.91-4.3 1.345c-3.24-10.257-7.612-21.163-12.963-32.432c5.106-11 9.31-21.767 12.459-31.957a145.15 145.15 0 0 1 7.055 2.228c16.025 5.649 31.683 14.74 31.683 28.666c0 14.654-17.106 24.514-33.934 32.15Zm-19.843-7.296c-5.601 10.803-11.878 20.974-18.697 30.302c-10.166.862-20.594 1.304-31.114 1.304c-10.615 0-21.027-.434-31.096-1.266c-6.91-9.326-13.26-19.517-18.895-30.378c-5.467-10.534-10.154-21.263-14.026-31.96c3.866-10.723 8.57-21.498 14.077-32.092c5.593-10.58 11.843-20.647 18.612-29.891c10.312-.918 20.878-1.39 31.484-1.39c10.515 0 20.97.462 31.162 1.352c6.866 9.284 13.229 19.437 18.874 30.098c5.479 10.347 10.14 20.876 13.976 31.438c-3.836 10.58-8.496 21.1-13.963 31.383h-.394Zm27.312-16.012c3.738 11.577 6.466 22.607 8.093 32.596c-9.46 5.497-27.116-1.378-46.143-17.19a150.148 150.148 0 0 1-5.397-4.86c7.5-8.516 14.648-17.868 21.237-27.867c8.512-1.4 16.603-3.138 24.2-5.181c1.4 4.56 2.61 9.068 3.611 13.402c-.71.064-1.024-.197-1.024-.197l-.577.297Zm-44.78 48.91c-5.3 5.337-10.738 9.93-16.103 13.693c-12.21 6.783-24.027 5.743-30.3 2.04c-6.724-3.97-11.39-14.45-10.24-31.07a148.228 148.228 0 0 1 1.733-7.905c8.146 1.635 16.858 2.826 26.004 3.537c7.5 9.57 15.444 18.444 23.75 26.34c1.876 1.813 3.717 3.537 5.504 5.163c-.115-.264-.232-.527-.348-.798Zm-62.817-56.315c-3.615 6.994-6.833 13.957-9.625 20.817c-8.94-2.548-17.163-5.556-24.509-8.96c-14.2-6.588-27.092-15.02-27.092-28.39c0-14.297 14.725-24.152 31.733-30.257c2.667-.946 5.461-1.82 8.36-2.634c3.27 10.35 7.534 21.274 12.774 32.398c-5.343 11.165-9.734 21.87-12.826 32.012l1.185.457v-5.443Zm7.983-37.398c-5.105-9.958-9.468-19.8-12.938-29.26c-.468-1.274-.904-2.534-1.31-3.777c9.66-5.703 27.994-.734 47.337 16.288c1.497 1.316 2.985 2.703 4.473 4.148c-7.611 8.482-14.83 17.84-21.428 27.875c-8.453 1.38-16.522 3.095-24.095 5.14a175.576 175.576 0 0 1-3.365-10.74c3.803-3.48 7.533-3.48 11.326-9.674Zm38.24-30.269c10.095-.892 20.467-1.35 30.87-1.35c10.49 0 20.96.468 31.174 1.384c5.253 7.18 10.334 14.892 15.12 23.053c-4.826 8.272-9.91 16.022-15.187 23.202c-10.352.91-20.887 1.378-31.493 1.378c-10.514 0-20.933-.458-31.05-1.338c-5.21-7.184-10.286-14.895-15.086-23.07c4.818-8.241 9.944-16.044 15.266-23.26h.386ZM128.073 130.47c7.134 0 12.918-5.784 12.918-12.918c0-7.134-5.784-12.918-12.918-12.918c-7.134 0-12.918 5.784-12.918 12.918c0 7.134 5.784 12.918 12.918 12.918Z"></path></svg>
